<svg width="20" height="21" viewBox="0 0 20 21" fill="none" xmlns="http://www.w3.org/2000/svg">
<g id="mdi:instagram">
<path id="Vector" d="M6.50002 2.1665H13.5C16.1667 2.1665 18.3334 4.33317 18.3334 6.99984V13.9998C18.3334 15.2817 17.8241 16.5111 16.9177 17.4175C16.0113 18.3239 14.7819 18.8332 13.5 18.8332H6.50002C3.83335 18.8332 1.66669 16.6665 1.66669 13.9998V6.99984C1.66669 5.71796 2.17591 4.48858 3.08234 3.58215C3.98876 2.67573 5.21814 2.1665 6.50002 2.1665ZM6.33335 3.83317C5.5377 3.83317 4.77464 4.14924 4.21203 4.71185C3.64942 5.27446 3.33335 6.03752 3.33335 6.83317V14.1665C3.33335 15.8248 4.67502 17.1665 6.33335 17.1665H13.6667C14.4623 17.1665 15.2254 16.8504 15.788 16.2878C16.3506 15.7252 16.6667 14.9622 16.6667 14.1665V6.83317C16.6667 5.17484 15.325 3.83317 13.6667 3.83317H6.33335ZM14.375 5.08317C14.6513 5.08317 14.9162 5.19292 15.1116 5.38827C15.3069 5.58362 15.4167 5.84857 15.4167 6.12484C15.4167 6.4011 15.3069 6.66606 15.1116 6.86141C14.9162 7.05676 14.6513 7.1665 14.375 7.1665C14.0988 7.1665 13.8338 7.05676 13.6385 6.86141C13.4431 6.66606 13.3334 6.4011 13.3334 6.12484C13.3334 5.84857 13.4431 5.58362 13.6385 5.38827C13.8338 5.19292 14.0988 5.08317 14.375 5.08317ZM10 6.33317C11.1051 6.33317 12.1649 6.77216 12.9463 7.55356C13.7277 8.33496 14.1667 9.39477 14.1667 10.4998C14.1667 11.6049 13.7277 12.6647 12.9463 13.4461C12.1649 14.2275 11.1051 14.6665 10 14.6665C8.89495 14.6665 7.83514 14.2275 7.05374 13.4461C6.27234 12.6647 5.83335 11.6049 5.83335 10.4998C5.83335 9.39477 6.27234 8.33496 7.05374 7.55356C7.83514 6.77216 8.89495 6.33317 10 6.33317ZM10 7.99984C9.33698 7.99984 8.70109 8.26323 8.23225 8.73207C7.76341 9.20091 7.50002 9.8368 7.50002 10.4998C7.50002 11.1629 7.76341 11.7988 8.23225 12.2676C8.70109 12.7364 9.33698 12.9998 10 12.9998C10.6631 12.9998 11.2989 12.7364 11.7678 12.2676C12.2366 11.7988 12.5 11.1629 12.5 10.4998C12.5 9.8368 12.2366 9.20091 11.7678 8.73207C11.2989 8.26323 10.6631 7.99984 10 7.99984Z" fill="white"/>
</g>
</svg>
