<svg width="20" height="21" viewBox="0 0 20 21" fill="none" xmlns="http://www.w3.org/2000/svg">
<g id="mdi:linkedin">
<path id="Vector" d="M15.8333 3C16.2754 3 16.6993 3.17559 17.0118 3.48816C17.3244 3.80072 17.5 4.22464 17.5 4.66667V16.3333C17.5 16.7754 17.3244 17.1993 17.0118 17.5118C16.6993 17.8244 16.2754 18 15.8333 18H4.16667C3.72464 18 3.30072 17.8244 2.98816 17.5118C2.67559 17.1993 2.5 16.7754 2.5 16.3333V4.66667C2.5 4.22464 2.67559 3.80072 2.98816 3.48816C3.30072 3.17559 3.72464 3 4.16667 3H15.8333ZM15.4167 15.9167V11.5C15.4167 10.7795 15.1304 10.0885 14.621 9.57903C14.1115 9.06955 13.4205 8.78333 12.7 8.78333C11.9917 8.78333 11.1667 9.21667 10.7667 9.86667V8.94167H8.44167V15.9167H10.7667V11.8083C10.7667 11.1667 11.2833 10.6417 11.925 10.6417C12.2344 10.6417 12.5312 10.7646 12.75 10.9834C12.9688 11.2022 13.0917 11.4989 13.0917 11.8083V15.9167H15.4167ZM5.73333 7.63333C6.10464 7.63333 6.46073 7.48583 6.72328 7.22328C6.98583 6.96073 7.13333 6.60464 7.13333 6.23333C7.13333 5.45833 6.50833 4.825 5.73333 4.825C5.35982 4.825 5.0016 4.97338 4.73749 5.23749C4.47338 5.5016 4.325 5.85982 4.325 6.23333C4.325 7.00833 4.95833 7.63333 5.73333 7.63333ZM6.89167 15.9167V8.94167H4.58333V15.9167H6.89167Z" fill="white"/>
</g>
</svg>
